<?xml version="1.0" encoding="UTF-8" standalone="no"?>
<svg
   width="1600"
   height="900"
   viewBox="0 0 1600 900"
   version="1.1"
   id="svg6"
   sodipodi:docname="dmg-background.svg"
   xml:space="preserve"
   inkscape:version="1.4.3 (0d15f75, 2025-12-25)"
   xmlns:inkscape="http://www.inkscape.org/namespaces/inkscape"
   xmlns:sodipodi="http://sodipodi.sourceforge.net/DTD/sodipodi-0.dtd"
   xmlns="http://www.w3.org/2000/svg"
   xmlns:svg="http://www.w3.org/2000/svg"><defs
     id="defs6" /><sodipodi:namedview
     id="namedview6"
     pagecolor="#ffffff"
     bordercolor="#666666"
     borderopacity="1.0"
     inkscape:showpageshadow="2"
     inkscape:pageopacity="0.0"
     inkscape:pagecheckerboard="0"
     inkscape:deskcolor="#d1d1d1"
     inkscape:zoom="0.78"
     inkscape:cx="427.5641"
     inkscape:cy="449.35897"
     inkscape:window-width="1282"
     inkscape:window-height="872"
     inkscape:window-x="0"
     inkscape:window-y="0"
     inkscape:window-maximized="0"
     inkscape:current-layer="svg6" /><rect
     x="0"
     y="0"
     width="1600"
     height="900"
     fill="#08111f"
     id="rect1" /><rect
     x="0"
     y="0"
     width="900"
     height="506"
     fill="#08111f"
     id="rect2" /><path
     d="M0 0 H900 V506 H0 Z"
     fill="#0c1728"
     id="path2" /><path
     d="M0 0 H900 V138 C738 112 597 126 472 104 C332 80 188 46 0 88 Z"
     fill="#12213a"
     id="path3" /><text
     x="92"
     y="72"
     font-family="Arial, Helvetica, sans-serif"
     font-size="34"
     font-weight="800"
     fill="#f4f7fb"
     id="text3">DockerBridge</text><text
     x="92"
     y="104"
     font-family="Arial, Helvetica, sans-serif"
     font-size="15"
     font-weight="500"
     fill="#a8b6d3"
     id="text4">Drag the app to Applications to install it.</text><rect
     x="228"
     y="174"
     width="144"
     height="144"
     rx="26"
     fill="#111f36"
     stroke="#263a5b"
     stroke-width="2"
     id="rect4" /><rect
     x="528"
     y="174"
     width="144"
     height="144"
     rx="26"
     fill="#111f36"
     stroke="#263a5b"
     stroke-width="2"
     id="rect5" /><text
     x="450"
     y="414"
     text-anchor="middle"
     font-family="Arial, Helvetica, sans-serif"
     font-size="13"
     font-weight="500"
     fill="#7f8daa"
     id="text6">The service stays available from the menu bar.</text><path
     style="fill:#62f08c;fill-opacity:1;stroke-width:1"
     d="m 514.78499,254.75275 c -0.60652,-0.10629 -11.93638,0.86017 -25.17744,2.14772 -13.24108,1.28753 -26.20647,2.39396 -28.81202,2.45871 l -4.73732,0.11772 6.15301,-5.16636 c 3.38416,-2.84148 5.80971,-5.55525 5.39013,-6.03059 -0.41958,-0.47535 -4.15368,-1.90078 -8.29802,-3.16764 -25.20435,-7.70455 -49.70495,-4.20419 -75.88294,10.84128 -1.54435,0.8876 -1.48407,0.59282 0.29107,-1.4235 7.2729,-8.261 25.31809,-17.74807 41.91158,-22.0346 12.32473,-3.18379 26.1605,-3.24611 46.53896,-0.20958 1.68892,0.25166 1.78946,-0.48159 0.83247,-6.0702 -0.59866,-3.49604 -0.73323,-6.41726 -0.29907,-6.49161 1.46393,-0.25068 47.72924,33.10122 47.11729,33.96608 -0.62454,0.88261 -3.08618,1.40287 -5.0277,1.06257 z"
     id="path7" /></svg>
